<svg id="Layer_1" data-name="Layer 1" xmlns="http://www.w3.org/2000/svg" viewBox="0 0 282 30.95"><defs><style>.cls-1{fill:#fff;}</style></defs><title>H1</title><path class="cls-1" d="M1,14.4C1,9,5.17,5.15,11,5.15c3.78,0,6.75,1.64,8,4.57l-4,2.17a4.48,4.48,0,0,0-4-2.47,4.6,4.6,0,0,0-4.71,5,4.6,4.6,0,0,0,4.71,5,4.41,4.41,0,0,0,4-2.47l4,2.2c-1.3,2.87-4.27,4.54-8,4.54C5.17,23.64,1,19.8,1,14.4Z"/><path class="cls-1" d="M20.49,14.4c0-5.41,4.18-9.25,9.88-9.25S40.22,9,40.22,14.4s-4.14,9.24-9.85,9.24S20.49,19.8,20.49,14.4ZM35,14.4c0-3.11-2-5-4.58-5s-4.6,1.87-4.6,5,2,5,4.6,5S35,17.5,35,14.4Z"/><path class="cls-1" d="M62.05,13.1V23.38H56.84V13.9c0-2.91-1.33-4.24-3.64-4.24-2.5,0-4.3,1.53-4.3,4.84v8.88H43.69v-18h5v2.1A7.9,7.9,0,0,1,54.6,5.15C58.84,5.15,62.05,7.62,62.05,13.1Z"/><path class="cls-1" d="M65.62,14.4c0-5.41,4.17-9.25,10-9.25,3.77,0,6.74,1.64,8.05,4.57l-4,2.17a4.49,4.49,0,0,0-4-2.47,4.6,4.6,0,0,0-4.71,5,4.6,4.6,0,0,0,4.71,5,4.42,4.42,0,0,0,4-2.47l4,2.2c-1.31,2.87-4.28,4.54-8.05,4.54C69.79,23.64,65.62,19.8,65.62,14.4Z"/><path class="cls-1" d="M103.94,15.87H90.35c.5,2.23,2.4,3.6,5.14,3.6A6.14,6.14,0,0,0,100,17.74l2.77,3c-1.67,1.9-4.17,2.9-7.41,2.9-6.21,0-10.25-3.9-10.25-9.24s4.11-9.25,9.58-9.25c5.28,0,9.35,3.54,9.35,9.31C104,14.86,104,15.43,103.94,15.87Zm-13.66-3h8.85a4.49,4.49,0,0,0-8.85,0Z"/><path class="cls-1" d="M127.07,14.4c0,5.64-3.91,9.24-8.95,9.24a7,7,0,0,1-5.41-2.17v8.38h-5.2V5.42h5V7.49a7,7,0,0,1,5.64-2.34C123.16,5.15,127.07,8.76,127.07,14.4Zm-5.28,0c0-3.11-2-5-4.57-5s-4.57,1.87-4.57,5,2,5,4.57,5S121.79,17.5,121.79,14.4Z"/><path class="cls-1" d="M142.12,22.51a7.43,7.43,0,0,1-4.24,1.13c-4.24,0-6.71-2.17-6.71-6.44V9.82H128.4v-4h2.77V1.45h5.21V5.82h4.47v4h-4.47v7.31a2.09,2.09,0,0,0,2.23,2.37,3.55,3.55,0,0,0,2.11-.66Z"/><path class="cls-1" d="M143.15,14.4c0-5.41,4.17-9.25,10-9.25,3.77,0,6.74,1.64,8,4.57l-4,2.17a4.48,4.48,0,0,0-4-2.47c-2.63,0-4.7,1.84-4.7,5a4.6,4.6,0,0,0,4.7,5,4.41,4.41,0,0,0,4-2.47l4,2.2c-1.3,2.87-4.27,4.54-8,4.54C147.32,23.64,143.15,19.8,143.15,14.4Z"/><path class="cls-1" d="M182.3,5.42v18h-4.94V21.24a7.24,7.24,0,0,1-5.57,2.4c-4.51,0-7.68-2.53-7.68-8.08V5.42h5.21V14.8c0,3,1.33,4.34,3.64,4.34s4.14-1.54,4.14-4.84V5.42Z"/><path class="cls-1" d="M198.29,5.15V10c-.43,0-.77-.07-1.17-.07-2.87,0-4.77,1.57-4.77,5v8.48h-5.21v-18h5V7.79C193.39,6.05,195.52,5.15,198.29,5.15Z"/><path class="cls-1" d="M217.18,13.13V23.38h-4.87V21.14c-1,1.64-2.84,2.5-5.47,2.5-4.21,0-6.71-2.33-6.71-5.44s2.23-5.37,7.71-5.37H212c0-2.24-1.34-3.54-4.14-3.54A8.62,8.62,0,0,0,202.66,11l-1.87-3.64a13.84,13.84,0,0,1,7.75-2.17C214,5.15,217.18,7.69,217.18,13.13ZM212,17.7V15.87h-3.57c-2.44,0-3.21.9-3.21,2.1s1.1,2.17,2.94,2.17A3.84,3.84,0,0,0,212,17.7Z"/><path class="cls-1" d="M220.75,14.4c0-5.41,4.18-9.25,10-9.25,3.77,0,6.74,1.64,8,4.57l-4,2.17a4.47,4.47,0,0,0-4-2.47c-2.63,0-4.7,1.84-4.7,5a4.6,4.6,0,0,0,4.7,5,4.4,4.4,0,0,0,4-2.47l4,2.2c-1.3,2.87-4.27,4.54-8,4.54C224.93,23.64,220.75,19.8,220.75,14.4Z"/><path class="cls-1" d="M257.7,13.13V23.38h-4.87V21.14c-1,1.64-2.84,2.5-5.47,2.5-4.21,0-6.71-2.33-6.71-5.44s2.23-5.37,7.71-5.37h4.14c0-2.24-1.34-3.54-4.14-3.54A8.62,8.62,0,0,0,243.18,11l-1.87-3.64a13.84,13.84,0,0,1,7.75-2.17C254.53,5.15,257.7,7.69,257.7,13.13Zm-5.2,4.57V15.87h-3.58c-2.43,0-3.2.9-3.2,2.1s1.1,2.17,2.94,2.17A3.84,3.84,0,0,0,252.5,17.7Z"/><path class="cls-1" d="M261.27,14.4c0-5.41,4.18-9.25,9.88-9.25S281,9,281,14.4s-4.14,9.24-9.85,9.24S261.27,19.8,261.27,14.4Zm14.46,0c0-3.11-2-5-4.58-5s-4.6,1.87-4.6,5,2,5,4.6,5S275.73,17.5,275.73,14.4Z"/></svg>