<svg id="Layer_1" data-name="Layer 1" xmlns="http://www.w3.org/2000/svg" viewBox="0 0 271.04 45.34"><defs><style>.cls-1{fill:#2e3192;}.cls-2{fill:#0b75d2;}.cls-3{fill:#00a9ff;}.cls-4{fill:#52cdff;}.cls-5{fill:#fff;}</style></defs><title>logo</title><path class="cls-1" d="M22.87,34.31c1.1-1.86,7.29.48,8-1.16.68-1.49-4.41-3.37-5.63-8.11-1.12-4.36,1.42-9.64,4.27-12.35a48.57,48.57,0,0,1,4.63-4,14.23,14.23,0,0,0,3-2.69c1.35-1.64,1.36-2.44,1.34-2.72A3.75,3.75,0,0,0,36.72.72C32.8-2.08,1.29,7.62,1.71,23c.38,13.8,26.82,22.69,27.85,21.32C30.24,43.36,21.45,36.71,22.87,34.31Z"/><path class="cls-2" d="M30,44.56a8.4,8.4,0,0,0,6-6.1C38.82,29.55,24,25.86,24.18,16.19,24.34,8,35.26,2.1,32.33.45,30.82-.4,27,.63,24.18,1.56,10.61,5.45,1.9,13.81,1.87,23c0,11.57,14.89,20,22.31,21.5A13.72,13.72,0,0,0,30,44.56Z"/><path class="cls-3" d="M24.8,44.71c3.64-1.09,4.64-5,4.92-6.14C32,29.6,19.84,25.9,20,16.16,20.14,7.87,29.08,2,26.68.32,25.45-.54,22.32.5,20,1.44,8.9,5.35,1.77,13.76,1.74,23,1.71,34.63,13.93,43.1,20,44.62A9.15,9.15,0,0,0,24.8,44.71Z"/><path class="cls-4" d="M19.09,44.71c2.74-1.09,3.49-5,3.7-6.14,1.71-9-7.43-12.67-7.31-22.41C15.59,7.87,22.31,2,20.51.32c-.93-.86-3.28.18-5,1.12A23.88,23.88,0,0,0,1.74,23c0,11.65,9.17,20.12,13.74,21.64A5.28,5.28,0,0,0,19.09,44.71Z"/><path class="cls-5" d="M47.17,22.32c0-4.19,3.23-7.16,7.76-7.16,2.92,0,5.22,1.26,6.23,3.54L58,20.38a3.46,3.46,0,0,0-3.13-1.91,3.55,3.55,0,0,0-3.64,3.85,3.55,3.55,0,0,0,3.64,3.85A3.43,3.43,0,0,0,58,24.26L61.16,26c-1,2.23-3.31,3.52-6.23,3.52C50.4,29.48,47.17,26.51,47.17,22.32Z"/><path class="cls-5" d="M62.27,22.32c0-4.19,3.23-7.16,7.65-7.16s7.63,3,7.63,7.16-3.21,7.16-7.63,7.16S62.27,26.51,62.27,22.32Zm11.19,0c0-2.41-1.52-3.85-3.54-3.85a3.52,3.52,0,0,0-3.57,3.85,3.57,3.57,0,1,0,7.11,0Z"/><path class="cls-5" d="M94.45,21.31v8h-4V21.93c0-2.25-1-3.28-2.82-3.28s-3.33,1.19-3.33,3.75v6.87h-4V15.36h3.86V17a6.07,6.07,0,0,1,4.6-1.83C92,15.16,94.45,17.07,94.45,21.31Z"/><path class="cls-5" d="M97.22,22.32c0-4.19,3.23-7.16,7.75-7.16,2.92,0,5.22,1.26,6.23,3.54l-3.12,1.68A3.47,3.47,0,0,0,105,18.47a3.56,3.56,0,0,0-3.65,3.85A3.56,3.56,0,0,0,105,26.17a3.44,3.44,0,0,0,3.13-1.91L111.2,26c-1,2.23-3.31,3.52-6.23,3.52C100.45,29.48,97.22,26.51,97.22,22.32Z"/><path class="cls-5" d="M126.89,23.46H116.37c.39,1.73,1.86,2.79,4,2.79a4.68,4.68,0,0,0,3.49-1.35L126,27.23a7.29,7.29,0,0,1-5.74,2.25c-4.81,0-7.94-3-7.94-7.16a7.08,7.08,0,0,1,7.42-7.16A6.88,6.88,0,0,1,127,22.37C127,22.68,126.92,23.12,126.89,23.46ZM116.32,21.1h6.85a3.47,3.47,0,0,0-6.85,0Z"/><path class="cls-5" d="M144.81,22.32a6.76,6.76,0,0,1-6.93,7.16,5.41,5.41,0,0,1-4.19-1.68v6.49h-4V15.36h3.85V17a5.4,5.4,0,0,1,4.37-1.81A6.76,6.76,0,0,1,144.81,22.32Zm-4.09,0c0-2.41-1.52-3.85-3.54-3.85s-3.54,1.44-3.54,3.85a3.55,3.55,0,1,0,7.08,0Z"/><path class="cls-5" d="M156.46,28.6a5.77,5.77,0,0,1-3.28.88c-3.28,0-5.19-1.68-5.19-5V18.78h-2.15V15.67H148V12.29h4v3.38h3.46v3.11H152v5.66a1.61,1.61,0,0,0,1.73,1.83,2.77,2.77,0,0,0,1.63-.51Z"/><path class="cls-5" d="M157.26,22.32c0-4.19,3.24-7.16,7.76-7.16,2.92,0,5.22,1.26,6.23,3.54l-3.13,1.68A3.46,3.46,0,0,0,165,18.47a3.55,3.55,0,0,0-3.64,3.85A3.55,3.55,0,0,0,165,26.17a3.43,3.43,0,0,0,3.13-1.91l3.13,1.7c-1,2.23-3.31,3.52-6.23,3.52C160.5,29.48,157.26,26.51,157.26,22.32Z"/><path class="cls-5" d="M187.59,15.36V29.27h-3.83V27.62a5.64,5.64,0,0,1-4.32,1.86c-3.49,0-5.94-2-5.94-6.26V15.36h4v7.27c0,2.32,1,3.36,2.82,3.36s3.2-1.19,3.2-3.75V15.36Z"/><path class="cls-5" d="M200,15.16v3.72c-.34,0-.6-.05-.91-.05-2.22,0-3.69,1.21-3.69,3.88v6.56h-4V15.36h3.86V17.2A5.58,5.58,0,0,1,200,15.16Z"/><path class="cls-5" d="M214.6,21.34v7.93h-3.78V27.54c-.74,1.27-2.19,1.94-4.23,1.94-3.26,0-5.2-1.81-5.2-4.21s1.73-4.17,6-4.17h3.21c0-1.73-1-2.74-3.21-2.74a6.66,6.66,0,0,0-4,1.3l-1.44-2.82a10.63,10.63,0,0,1,6-1.68C212.14,15.16,214.6,17.12,214.6,21.34Zm-4,3.54V23.46H207.8c-1.89,0-2.48.69-2.48,1.62s.85,1.68,2.27,1.68A3,3,0,0,0,210.57,24.88Z"/><path class="cls-5" d="M217.36,22.32c0-4.19,3.24-7.16,7.76-7.16,2.92,0,5.22,1.26,6.23,3.54l-3.13,1.68a3.46,3.46,0,0,0-3.13-1.91,3.55,3.55,0,0,0-3.64,3.85,3.55,3.55,0,0,0,3.64,3.85,3.43,3.43,0,0,0,3.13-1.91l3.13,1.7c-1,2.23-3.31,3.52-6.23,3.52C220.6,29.48,217.36,26.51,217.36,22.32Z"/><path class="cls-5" d="M246,21.34v7.93h-3.77V27.54c-.75,1.27-2.2,1.94-4.24,1.94-3.26,0-5.2-1.81-5.2-4.21s1.73-4.17,6-4.17H242c0-1.73-1-2.74-3.21-2.74a6.66,6.66,0,0,0-4,1.3l-1.44-2.82a10.63,10.63,0,0,1,6-1.68C243.52,15.16,246,17.12,246,21.34Zm-4,3.54V23.46h-2.77c-1.89,0-2.48.69-2.48,1.62s.85,1.68,2.27,1.68A3,3,0,0,0,242,24.88Z"/><path class="cls-5" d="M248.75,22.32c0-4.19,3.23-7.16,7.65-7.16s7.62,3,7.62,7.16-3.2,7.16-7.62,7.16S248.75,26.51,248.75,22.32Zm11.19,0a3.57,3.57,0,1,0-7.11,0,3.57,3.57,0,1,0,7.11,0Z"/></svg>